<?xml version="1.0" encoding="UTF-8"?>
<svg xmlns="http://www.w3.org/2000/svg" width="4.36mm" height="7.89mm" viewBox="0 0 12.36 22.36">
  <defs>
    <style>
      .b {
        isolation: isolate;
      }

      .c {
        fill: #f4accd;
        mix-blend-mode: multiply;
        stroke-width: 0px;
      }
    </style>
  </defs>
  <g class="b">
    <g id="a" data-name="Vrstva 1">
      <path class="c" d="M7.84,22.36h-3.33c-2.49,0-4.51-2.02-4.51-4.51v-1.95c0-1.19.48-2.35,1.32-3.19l1.52-1.52-1.52-1.52c-.85-.85-1.32-1.99-1.32-3.19v-1.95C0,2.02,2.02,0,4.51,0h3.33c2.49,0,4.51,2.02,4.51,4.51v1.95c0,1.2-.47,2.34-1.32,3.19l-1.52,1.52,1.52,1.52c.84.84,1.32,2,1.32,3.19v1.95c0,2.49-2.02,4.51-4.51,4.51ZM4.51,2.36c-1.19,0-2.16.97-2.16,2.16v1.95c0,.58.22,1.12.63,1.52l3.19,3.19-3.19,3.19c-.4.4-.63.96-.63,1.52v1.95c0,1.19.97,2.16,2.16,2.16h3.33c1.19,0,2.16-.97,2.16-2.16v-1.95c0-.57-.23-1.12-.63-1.52l-3.19-3.19,3.19-3.19c.41-.41.63-.95.63-1.52v-1.95c0-1.19-.97-2.16-2.16-2.16h-3.33Z"/>
    </g>
  </g>
</svg>