<?xml version="1.0" encoding="UTF-8"?>
<svg xmlns="http://www.w3.org/2000/svg" width="4.36mm" height="7.89mm" viewBox="0 0 12.36 22.36">
  <defs>
    <style>
      .b {
        isolation: isolate;
      }

      .c {
        fill: #f4accd;
        mix-blend-mode: multiply;
        stroke-width: 0px;
      }
    </style>
  </defs>
  <g class="b">
    <g id="a" data-name="Vrstva 1">
      <path class="c" d="M7.84,22.36H0V0h7.84c2.49,0,4.51,2.02,4.51,4.51v1.95c0,1.2-.47,2.34-1.32,3.19l-1.52,1.52,1.52,1.52c.84.84,1.32,2,1.32,3.19v1.95c0,2.49-2.02,4.51-4.51,4.51ZM2.36,20h5.49c1.19,0,2.16-.97,2.16-2.16v-1.95c0-.57-.23-1.12-.63-1.52l-3.19-3.19,3.19-3.19c.41-.41.63-.95.63-1.52v-1.95c0-1.19-.97-2.16-2.16-2.16H2.36v17.64Z"/>
    </g>
  </g>
</svg>