<?xml version="1.0" encoding="UTF-8"?>
<svg xmlns="http://www.w3.org/2000/svg" width="4.36mm" height="7.89mm" viewBox="0 0 12.36 22.36">
  <defs>
    <style>
      .b {
        isolation: isolate;
      }

      .c {
        fill: #f4accd;
        mix-blend-mode: multiply;
        stroke-width: 0px;
      }
    </style>
  </defs>
  <g class="b">
    <g id="a" data-name="Vrstva 1">
      <path class="c" d="M7.84,22.36H0v-2.36h7.84c1.19,0,2.16-.97,2.16-2.16v-3.33c0-1.19-.97-2.16-2.16-2.16h-3.33c-2.49,0-4.51-2.02-4.51-4.51v-3.33C0,2.02,2.02,0,4.51,0h7.84v2.36h-7.84c-1.19,0-2.16.97-2.16,2.16v3.33c0,1.19.97,2.16,2.16,2.16h3.33c2.49,0,4.51,2.02,4.51,4.51v3.33c0,2.49-2.02,4.51-4.51,4.51Z"/>
    </g>
  </g>
</svg>